<svg xmlns="http://www.w3.org/2000/svg" viewBox="0 0 1100 500" width="1100" height="500" role="img" font-family="'IBM Plex Sans','Segoe UI','Helvetica Neue',Arial,sans-serif">
<title>BFS: матрица, списъци, CSR</title>
<rect width="1100" height="500" rx="12" fill="#ffffff"/>
<defs><marker id="arrow" viewBox="0 0 10 10" refX="9" refY="5" markerWidth="7" markerHeight="7" orient="auto-start-reverse"><path d="M0,0 L10,5 L0,10 z" fill="#52514e"/></marker></defs>
<text x="40.0" y="44.0" font-size="24" fill="#0b0b0b" text-anchor="start" font-weight="700">Едно BFS, случаен граф с n върха и 4n ребра (ms)</text>
<text x="40.0" y="70.0" font-size="15" fill="#52514e" text-anchor="start" font-weight="400">Release, примерна машина; матрицата — само до 16 000 (256 MB)</text>
<line x1="100.0" y1="420.0" x2="660.0" y2="420.0" stroke="#e4e3df" stroke-width="1" stroke-linecap="round"/>
<text x="90.0" y="425.0" font-size="13" fill="#52514e" text-anchor="end" font-weight="400">0.001</text>
<line x1="100.0" y1="366.7" x2="660.0" y2="366.7" stroke="#e4e3df" stroke-width="1" stroke-linecap="round"/>
<text x="90.0" y="371.7" font-size="13" fill="#52514e" text-anchor="end" font-weight="400">0.01</text>
<line x1="100.0" y1="313.3" x2="660.0" y2="313.3" stroke="#e4e3df" stroke-width="1" stroke-linecap="round"/>
<text x="90.0" y="318.3" font-size="13" fill="#52514e" text-anchor="end" font-weight="400">0.1</text>
<line x1="100.0" y1="260.0" x2="660.0" y2="260.0" stroke="#e4e3df" stroke-width="1" stroke-linecap="round"/>
<text x="90.0" y="265.0" font-size="13" fill="#52514e" text-anchor="end" font-weight="400">1</text>
<line x1="100.0" y1="206.7" x2="660.0" y2="206.7" stroke="#e4e3df" stroke-width="1" stroke-linecap="round"/>
<text x="90.0" y="211.7" font-size="13" fill="#52514e" text-anchor="end" font-weight="400">10</text>
<line x1="100.0" y1="153.3" x2="660.0" y2="153.3" stroke="#e4e3df" stroke-width="1" stroke-linecap="round"/>
<text x="90.0" y="158.3" font-size="13" fill="#52514e" text-anchor="end" font-weight="400">100</text>
<line x1="100.0" y1="100.0" x2="660.0" y2="100.0" stroke="#e4e3df" stroke-width="1" stroke-linecap="round"/>
<text x="90.0" y="105.0" font-size="13" fill="#52514e" text-anchor="end" font-weight="400">1000</text>
<line x1="100.0" y1="420.0" x2="100.0" y2="426.0" stroke="#8a8984" stroke-width="1" stroke-linecap="round"/>
<text x="100.0" y="444.0" font-size="13" fill="#52514e" text-anchor="middle" font-weight="400">10^3</text>
<line x1="255.5" y1="420.0" x2="255.5" y2="426.0" stroke="#8a8984" stroke-width="1" stroke-linecap="round"/>
<text x="255.5" y="444.0" font-size="13" fill="#52514e" text-anchor="middle" font-weight="400">10^4</text>
<line x1="410.9" y1="420.0" x2="410.9" y2="426.0" stroke="#8a8984" stroke-width="1" stroke-linecap="round"/>
<text x="410.9" y="444.0" font-size="13" fill="#52514e" text-anchor="middle" font-weight="400">10^5</text>
<line x1="566.4" y1="420.0" x2="566.4" y2="426.0" stroke="#8a8984" stroke-width="1" stroke-linecap="round"/>
<text x="566.4" y="444.0" font-size="13" fill="#52514e" text-anchor="middle" font-weight="400">10^6</text>
<line x1="100.0" y1="420.0" x2="660.0" y2="420.0" stroke="#8a8984" stroke-width="1" stroke-linecap="round"/>
<text x="380.0" y="472.0" font-size="15" fill="#52514e" text-anchor="middle" font-weight="400">n (лог. ос)</text>
<text transform="translate(42,260.0) rotate(-90)" font-size="15" fill="#52514e" text-anchor="middle">ms (лог. ос)</text>
<path d="M100.0,266.8 L193.6,207.3 L287.2,143.1" fill="none" stroke="#e34948" stroke-width="2" stroke-linejoin="round" stroke-linecap="round"/>
<circle cx="100.0" cy="266.8" r="4" fill="#e34948" stroke="#ffffff" stroke-width="2"/>
<circle cx="193.6" cy="207.3" r="4" fill="#e34948" stroke="#ffffff" stroke-width="2"/>
<circle cx="287.2" cy="143.1" r="4" fill="#e34948" stroke="#ffffff" stroke-width="2"/>
<path d="M100.0,374.9 L193.6,334.0 L287.2,271.1 L410.9,239.9 L566.4,175.9 L660.0,128.4" fill="none" stroke="#2a78d6" stroke-width="2" stroke-linejoin="round" stroke-linecap="round"/>
<circle cx="100.0" cy="374.9" r="4" fill="#2a78d6" stroke="#ffffff" stroke-width="2"/>
<circle cx="193.6" cy="334.0" r="4" fill="#2a78d6" stroke="#ffffff" stroke-width="2"/>
<circle cx="287.2" cy="271.1" r="4" fill="#2a78d6" stroke="#ffffff" stroke-width="2"/>
<circle cx="410.9" cy="239.9" r="4" fill="#2a78d6" stroke="#ffffff" stroke-width="2"/>
<circle cx="566.4" cy="175.9" r="4" fill="#2a78d6" stroke="#ffffff" stroke-width="2"/>
<circle cx="660.0" cy="128.4" r="4" fill="#2a78d6" stroke="#ffffff" stroke-width="2"/>
<path d="M100.0,382.7 L193.6,337.6 L287.2,289.5 L410.9,240.6 L566.4,183.5 L660.0,138.8" fill="none" stroke="#1baf7a" stroke-width="2" stroke-linejoin="round" stroke-linecap="round"/>
<circle cx="100.0" cy="382.7" r="4" fill="#1baf7a" stroke="#ffffff" stroke-width="2"/>
<circle cx="193.6" cy="337.6" r="4" fill="#1baf7a" stroke="#ffffff" stroke-width="2"/>
<circle cx="287.2" cy="289.5" r="4" fill="#1baf7a" stroke="#ffffff" stroke-width="2"/>
<circle cx="410.9" cy="240.6" r="4" fill="#1baf7a" stroke="#ffffff" stroke-width="2"/>
<circle cx="566.4" cy="183.5" r="4" fill="#1baf7a" stroke="#ffffff" stroke-width="2"/>
<circle cx="660.0" cy="138.8" r="4" fill="#1baf7a" stroke="#ffffff" stroke-width="2"/>
<line x1="700.0" y1="130.0" x2="722.0" y2="130.0" stroke="#e34948" stroke-width="3" stroke-linecap="round"/>
<text x="730.0" y="135.0" font-size="14" fill="#0b0b0b" text-anchor="start" font-weight="400">матрица на съседство</text>
<line x1="700.0" y1="154.0" x2="722.0" y2="154.0" stroke="#2a78d6" stroke-width="3" stroke-linecap="round"/>
<text x="730.0" y="159.0" font-size="14" fill="#0b0b0b" text-anchor="start" font-weight="400">списъци (вашият Graph)</text>
<line x1="700.0" y1="178.0" x2="722.0" y2="178.0" stroke="#1baf7a" stroke-width="3" stroke-linecap="round"/>
<text x="730.0" y="183.0" font-size="14" fill="#0b0b0b" text-anchor="start" font-weight="400">CSR (един масив)</text>
<text x="700.0" y="230.0" font-size="14" fill="#52514e" text-anchor="start" font-weight="400">n = 16 000: матрица 155 ms / 256 MB,</text>
<text x="700.0" y="252.0" font-size="14" fill="#52514e" text-anchor="start" font-weight="400">списъци 0.62 ms / 1.1 MB</text>
<text x="700.0" y="288.0" font-size="14" fill="#52514e" text-anchor="start" font-weight="400">n = 4·10^6: списъци 293 ms, CSR 187 ms</text>
<text x="700.0" y="310.0" font-size="14" fill="#52514e" text-anchor="start" font-weight="400">памет 270 MB срещу 144 MB</text>
<text x="700.0" y="346.0" font-size="14" fill="#52514e" text-anchor="start" font-weight="400">Матрицата: Θ(n²) — наклон 2.</text>
<text x="700.0" y="368.0" font-size="14" fill="#52514e" text-anchor="start" font-weight="400">Списъци и CSR: Θ(n + m) — наклон 1;</text>
<text x="700.0" y="390.0" font-size="14" fill="#52514e" text-anchor="start" font-weight="400">CSR — по-малко памет, по-малко промахи.</text>
</svg>
