<svg xmlns="http://www.w3.org/2000/svg" viewBox="0 0 1100 420" width="1100" height="420" role="img" font-family="'IBM Plex Sans','Segoe UI','Helvetica Neue',Arial,sans-serif">
<title>Стъпка 2: rotateRight(z) — балансирано</title>
<rect width="1100" height="420" rx="12" fill="#ffffff"/>
<defs><marker id="arrow" viewBox="0 0 10 10" refX="9" refY="5" markerWidth="7" markerHeight="7" orient="auto-start-reverse"><path d="M0,0 L10,5 L0,10 z" fill="#52514e"/></marker></defs>
<text x="40.0" y="46.0" font-size="24" fill="#0b0b0b" text-anchor="start" font-weight="700">Стъпка 2: rotateRight(z) — балансирано</text>
<line x1="533.6" y1="121.4" x2="420.0" y2="200.0" stroke="#52514e" stroke-width="1.5" stroke-linecap="round"/>
<line x1="566.4" y1="121.4" x2="680.0" y2="200.0" stroke="#52514e" stroke-width="1.5" stroke-linecap="round"/>
<line x1="406.3" y1="214.6" x2="360.0" y2="264.0" stroke="#52514e" stroke-width="1.5" stroke-linecap="round"/>
<line x1="432.3" y1="215.8" x2="470.0" y2="264.0" stroke="#52514e" stroke-width="1.5" stroke-linecap="round"/>
<line x1="667.7" y1="215.8" x2="630.0" y2="264.0" stroke="#52514e" stroke-width="1.5" stroke-linecap="round"/>
<line x1="693.7" y1="214.6" x2="740.0" y2="264.0" stroke="#52514e" stroke-width="1.5" stroke-linecap="round"/>
<path d="M 360,264 L 332.0,374 L 388.0,374 Z" fill="#f6f5f2" stroke="#8a8984" stroke-width="1.4" stroke-linejoin="round" stroke-linecap="round"/>
<text x="360.0" y="343.2" font-size="15" fill="#0b0b0b" text-anchor="middle" font-weight="700">A</text>
<path d="M 470,264 L 442.0,320 L 498.0,320 Z" fill="#fde8df" stroke="#eb6834" stroke-width="1.4" stroke-linejoin="round" stroke-linecap="round"/>
<text x="470.0" y="304.3" font-size="15" fill="#0b0b0b" text-anchor="middle" font-weight="700">B</text>
<path d="M 630,264 L 602.0,320 L 658.0,320 Z" fill="#fde8df" stroke="#eb6834" stroke-width="1.4" stroke-linejoin="round" stroke-linecap="round"/>
<text x="630.0" y="304.3" font-size="15" fill="#0b0b0b" text-anchor="middle" font-weight="700">C</text>
<path d="M 740,264 L 712.0,374 L 768.0,374 Z" fill="#f6f5f2" stroke="#8a8984" stroke-width="1.4" stroke-linejoin="round" stroke-linecap="round"/>
<text x="740.0" y="343.2" font-size="15" fill="#0b0b0b" text-anchor="middle" font-weight="700">D</text>
<circle cx="550.0" cy="110.0" r="20" fill="#dcf3ea" stroke="#1baf7a" stroke-width="1.6"/>
<text x="550.0" y="116.0" font-size="16" fill="#0b0b0b" text-anchor="middle" font-weight="700" font-family="'IBM Plex Mono',Consolas,Menlo,monospace">y</text>
<circle cx="420.0" cy="200.0" r="20" fill="#e3eefb" stroke="#2a78d6" stroke-width="1.6"/>
<text x="420.0" y="206.0" font-size="16" fill="#0b0b0b" text-anchor="middle" font-weight="700" font-family="'IBM Plex Mono',Consolas,Menlo,monospace">x</text>
<circle cx="680.0" cy="200.0" r="20" fill="#e3eefb" stroke="#2a78d6" stroke-width="1.6"/>
<text x="680.0" y="206.0" font-size="16" fill="#0b0b0b" text-anchor="middle" font-weight="700" font-family="'IBM Plex Mono',Consolas,Menlo,monospace">z</text>
<text x="800.0" y="150.0" font-size="14" fill="#52514e" text-anchor="start" font-weight="400">y е новият корен</text>
<text x="800.0" y="176.0" font-size="14" fill="#52514e" text-anchor="start" font-weight="400">A, B | C, D — по два от всяка страна</text>
<text x="800.0" y="202.0" font-size="14" fill="#52514e" text-anchor="start" font-weight="400">височината е като преди вмъкването</text>
</svg>
